<svg xmlns="http://www.w3.org/2000/svg" viewBox="0 0 536.27 105.43"><defs><style>.cls-1,.cls-2{fill:#2563eb;}.cls-2{font-size:20.71px;font-family:AvantGarde-Bold, ITC Avant Garde Gothic;font-weight:700;}</style></defs><g id="Layer_2" data-name="Layer 2"><g id="POS"><rect class="cls-1" x="110.21" y="6.79" width="15.29" height="65.97"/><path class="cls-1" d="M157.43,40.63l-.24-.08c-5.84-1.89-6.78-2.31-6.78-4a2.9,2.9,0,0,1,3.08-2.83c1.77,0,2.84,1,3.26,3.07l.2.94h13l0-1.23c-.45-10-8.73-15.31-16.28-15.31-8,0-16.69,5.94-16.69,15.53,0,9.28,7,13,11.21,14.4,7.89,2.66,9.56,3.31,9.56,5.79a3.56,3.56,0,0,1-3.83,3.49c-3.45,0-4.36-2.59-4.94-5l-.22-.9H135.18l.11,1.28a18.49,18.49,0,0,0,3.76,10.64c3.26,4.09,8.78,6.53,14.77,6.53,8.42,0,17.36-6.08,17.36-17.36C171.18,44.82,162.24,42.09,157.43,40.63Z"/><path class="cls-1" d="M308.06,29.72c-2.08-2.91-7-7.79-16.46-7.79a18.68,18.68,0,0,0-14.9,6.29,17.21,17.21,0,0,0-13.38-6.29c-5.3,0-8.7,1.64-10.79,3.34V23.52H239.4V72.76h14V48.18c0-6.35.57-13.13,7.37-13.13s7.79,6.61,7.79,10.54V72.76h14V47.35c0-2.07,0-6.37,1.46-8.68a7.57,7.57,0,0,1,6.41-3.62c5,0,7.29,3.35,7.29,10.54V72.76h14V44.26C311.84,36,309.46,31.56,308.06,29.72Z"/><path class="cls-1" d="M344.4,21.77c-15.8,0-25.24,13.09-25.24,25.74a25.1,25.1,0,0,0,25.33,25.41c11.72,0,20.54-7.27,23.2-15.57l.36-1.15H354.64l-.25.46c-1.94,3.57-5.37,5.46-9.9,5.46-6.57,0-10.49-6-11.6-8.88h35.5l.15-.7a26,26,0,0,0,.69-5.78C369.23,34.48,359.94,21.77,344.4,21.77Zm11.52,20.77H332.55a11.93,11.93,0,0,1,11.94-8.83C350.47,33.71,354.59,36.92,355.92,42.54Z"/><path class="cls-1" d="M85.54,27.05c-2.15-2.34-7.61-4.49-12-4.49-13.17,0-24.2,11.51-24.2,25.76,0,14,10.74,25.66,24.2,25.66,4.49,0,9.85-1.76,12-4.59V72.9H99.39V23.63H85.54ZM74.91,60.22c-6.35,0-11.52-4.88-11.52-11.9A11.51,11.51,0,0,1,74.91,36.41c6.43,0,11.22,5,11.22,11.91S81.34,60.22,74.91,60.22Z"/><path class="cls-1" d="M214.7,26.89c-2.15-2.35-7.61-4.49-12-4.49-13.17,0-24.2,11.51-24.2,25.75,0,14.05,10.73,25.66,24.2,25.66,4.49,0,9.85-1.75,12-4.58v3.51h13.85V23.47H214.7ZM204.06,60.06c-6.34,0-11.51-4.88-11.51-11.91a11.5,11.5,0,0,1,11.51-11.9c6.44,0,11.22,5,11.22,11.9S210.5,60.06,204.06,60.06Z"/><polygon class="cls-1" points="0 72.76 15.12 72.76 15.12 40.85 42.44 40.85 42.44 27.29 15.12 27.29 15.12 13.73 42.44 13.73 42.44 0.07 0 0.07 0 72.76"/><path class="cls-1" d="M416.4,24.73h-4.5V36h5c2.31,0,7.58,0,7.58-5.72S419,24.73,416.4,24.73Z"/><path class="cls-1" d="M464.21,23.83c-8.42,0-13,7.2-13,13.88,0,7.33,4.95,14.14,13.11,14.14,8.61,0,12.79-7.84,12.79-13.94S473,23.83,464.21,23.83Z"/><path class="cls-1" d="M525.64,0H399.49a10.63,10.63,0,0,0-10.63,10.63V65.06a10.63,10.63,0,0,0,10.63,10.63H525.64a10.63,10.63,0,0,0,10.63-10.63V10.63A10.63,10.63,0,0,0,525.64,0ZM431.05,42.6c-3.28,2.76-6.49,4.11-13.88,4.11H411.9V61.62H400.26V14.06h15.56c8.8,0,12.08,1.35,14.65,3.48a16.14,16.14,0,0,1,5.59,12.59C436.06,35,434.07,40,431.05,42.6Zm33,19.92a24.52,24.52,0,0,1-25-24.1,26.91,26.91,0,0,1,1.86-10.15,25.23,25.23,0,0,1,48.33,9.57C489.27,51.08,478.86,62.52,464.08,62.52Zm46.21,0c-13.76,0-17.16-9-17.16-15.1V45.88h12.08c0,5.52,3.41,6.49,5,6.49a4.59,4.59,0,0,0,4.63-4.57c0-3.15-2-3.92-9.32-7-3.34-1.35-11.63-4.69-11.63-13.62s8.67-14,16.64-14c4.69,0,9.77,1.73,12.85,5.39,2.83,3.47,3,6.69,3.15,9.39h-12c-.25-1.61-.64-4.63-4.37-4.63a4,4,0,0,0-4.17,3.73c0,2.82,1.28,3.4,9.83,7.26,8.87,4,11.12,8.1,11.12,13.62C526.87,54.87,522.88,62.52,510.29,62.52Z"/><text class="cls-2" transform="translate(503.56 99.82)">TM</text></g></g></svg>