<svg xmlns="http://www.w3.org/2000/svg" viewBox="0 0 208.96 208.96"><defs><style>.cls-1{fill:#2563eb;}</style></defs><g id="Layer_2" data-name="Layer 2"><g id="Layer_1-2" data-name="Layer 1"><path class="cls-1" d="M139.12,103.52c-8.92,0-16.19,7-16.19,16.74S130.2,137,139.12,137s15.78-6.86,15.78-16.74S148.18,103.52,139.12,103.52Z"/><path class="cls-1" d="M188.42,0H20.54A20.55,20.55,0,0,0,0,20.54V188.42A20.55,20.55,0,0,0,20.54,209H188.42A20.55,20.55,0,0,0,209,188.42V20.54A20.55,20.55,0,0,0,188.42,0ZM95.08,71.82H56.66V90.9H95.08V110H56.66v44.86H35.4V52.61H95.08Zm78.48,83H154.08v-4.94c-3,4-10.57,6.45-16.88,6.45-18.93,0-34-16.33-34-36.08,0-20,15.51-36.23,34-36.23,6.18,0,13.86,3,16.88,6.32V85.54h19.48ZM163.33,77.06a10.23,10.23,0,1,1,10.23-10.23A10.22,10.22,0,0,1,163.33,77.06Z"/></g></g></svg>